/* XPM */
static char * DUP_xpm[] = {
"64 64 117 2",
"  	c None",
". 	c #2762E8",
"+ 	c #9CB7F4",
"@ 	c #BDCFF8",
"# 	c #DEE7FB",
"$ 	c #EEF2FD",
"% 	c #F6F8FE",
"& 	c #FAFBFE",
"* 	c #E1E9FB",
"= 	c #C3D3F8",
"- 	c #A5BDF5",
"; 	c #87A8F2",
"> 	c #4D7DEC",
", 	c #FFFFFF",
"' 	c #BCCEF7",
") 	c #DDE6FB",
"! 	c #EDF2FD",
"~ 	c #F5F8FE",
"{ 	c #FCFDFE",
"] 	c #D7E2FA",
"^ 	c #C0D1F8",
"/ 	c #A6BEF5",
"( 	c #5986ED",
"_ 	c #FDFDFE",
": 	c #B1C6F6",
"< 	c #4276EA",
"[ 	c #D8E3FA",
"} 	c #7298F0",
"| 	c #A0BAF4",
"1 	c #FEFEFE",
"2 	c #759BF0",
"3 	c #336BE9",
"4 	c #2C65E8",
"5 	c #2863E8",
"6 	c #3B70EA",
"7 	c #5886ED",
"8 	c #769BF0",
"9 	c #A4BDF5",
"0 	c #8AAAF2",
"a 	c #376EE9",
"b 	c #3169E9",
"c 	c #2963E8",
"d 	c #2E67E8",
"e 	c #3D72EA",
"f 	c #5885ED",
"g 	c #94B1F3",
"h 	c #E5ECFC",
"i 	c #4779EB",
"j 	c #5382EC",
"k 	c #376DE9",
"l 	c #CCDAF9",
"m 	c #A3BCF5",
"n 	c #BED0F8",
"o 	c #E0E8FB",
"p 	c #3068E8",
"q 	c #628DEE",
"r 	c #D1DDFA",
"s 	c #3E73EA",
"t 	c #F3F6FD",
"u 	c #366DE9",
"v 	c #95B2F3",
"w 	c #89A9F2",
"x 	c #648EEE",
"y 	c #CDDBF9",
"z 	c #6D95EF",
"A 	c #386EE9",
"B 	c #CFDCF9",
"C 	c #9DB8F4",
"D 	c #497BEB",
"E 	c #D8E2FA",
"F 	c #356CE9",
"G 	c #4175EA",
"H 	c #5F8BEE",
"I 	c #99B5F4",
"J 	c #E7EDFC",
"K 	c #5C88ED",
"L 	c #2F68E8",
"M 	c #7A9EF0",
"N 	c #789DF0",
"O 	c #6C94EF",
"P 	c #2D66E8",
"Q 	c #FBFCFE",
"R 	c #EBF0FC",
"S 	c #C6D5F8",
"T 	c #A7BFF5",
"U 	c #5A87ED",
"V 	c #4678EB",
"W 	c #487AEB",
"X 	c #D0DDFA",
"Y 	c #618CEE",
"Z 	c #638EEE",
"` 	c #CEDBF9",
" .	c #B2C7F6",
"..	c #B5C9F7",
"+.	c #AFC5F6",
"@.	c #4578EB",
"#.	c #7399F0",
"$.	c #6F96EF",
"%.	c #2B65E8",
"&.	c #3A70EA",
"*.	c #F9FBFE",
"=.	c #8CABF2",
"-.	c #92B0F3",
";.	c #4F7FEC",
">.	c #8FADF3",
",.	c #D4E0FA",
"'.	c #5E8AED",
").	c #B3C8F6",
"!.	c #E2EAFB",
"~.	c #5180EC",
"{.	c #EEF3FD",
"].	c #F7F9FE",
"^.	c #C4D4F8",
"/.	c #88A8F2",
"(.	c #4D7EEC",
"_.	c #326AE9",
":.	c #85A6F2",
". . . . . . . . . . . . . . . . . . . . . . . . . . . . . . . . . . . . . . . . . . . . . . . . . . . . . . . . . . . . . . . . ",
". . . . . . . . . . . . . . . . . . . . . . . . . . . . . . . . . . . . . . . . . . . . . . . . . . . . . . . . . . . . . . . . ",
". . . . . . . . . . . . . . . . . . . . . . . . . . . . . . . . . . . . . . . . . . . . . . . . . . . . . . . . . . . . . . . . ",
". . . . . . . . . . . . . . . . . . . . . . . . . . . . . . . . . . . . . . . . . . . . . . . . . . . . . . . . . . . . . . . . ",
". . . . . . . . . . . . . . . . . . . . . . . . . . . . . . . . . . . . . . . . . . . . . . . . . . . . . . . . . . . . . . . . ",
". . . . . . . . . . . . . . . . . . . . . . . . . . . . . . . . . . . . . . . . . . . . . . . . . . . . . . . . . . . . . . . . ",
". . . . . . . . . . . . . . . . . . . . . . . . . . . . . . . . . . . . . . . . . . . . . . . . . . . . . . . . . . . . . . . . ",
". . . . . . . . . . . . . . . . . . . . . . . . . . . . . . . . . . . . . . . . . . . . . . . . . . . . . . . . . . . . . . . . ",
". . . . . . . . . . . . . . . . . . . . . . . . . . . . . . . . . . . . . . . . . . . . . . . . . . . . . . . . . . . . . . . . ",
". . . . . . . . . . . . . . . . . . . . . . . . . . . . . . . . . . . . . . . . . . . . . . . . . . . . . . . . . . . . . . . . ",
". . . . . . . . . . . . . . . . . . . . . . . . . . . . . . . . . . . . . . . . . . . . . . . . . . . . . . . . . . . . . . . . ",
". . . . . . . . . . . . . . . . . . . . . . . . . . . . . . . . . . . . . . . . . . . . . . . . . . . . . . . . . . . . . . . . ",
". . . . . . . . . . . . . . . . . . . . . . . . . . . . . . . . . . . . . . . . . . . . . . . . . . . . . . . . . . . . . . . . ",
". . . . . . . . . . . . . . . . . . . . . . . . . . . . . . . . . . . . . . . . . . . . . . . . . . . . . . . . . . . . . . . . ",
". . . . . . . . . . . . . . . . . . . . . . . . . . . . . . . . . . . . . . . . . . . . . . . . . . . . . . . . . . . . . . . . ",
". . . . . . . . . . . . . . . . . . . . . . . . . . . . . . . . . . . . . . . . . . . . . . . . . . . . . . . . . . . . . . . . ",
". . . + @ # $ % & * = - ; > . . . . . . . . . . . , , , . . . . . . . . . , , , . . . . . . + ' ) ! ~ { ! ] ^ / ( . . . . . . . ",
". . . , , , , , , , , , , _ : < . . . . . . . . . , , , . . . . . . . . . , , , . . . . . . , , , , , , , , , , , [ } . . . . . ",
". . . , , , , , , , , , , , , & | . . . . . . . . , , , . . . . . . . . . , , , . . . . . . , , , , , , , , , , , , 1 2 . . . . ",
". . . , , , 3 4 5 6 7 8 9 & , , , 0 . . . . . . . , , , . . . . . . . . . , , , . . . . . . , , , a b c d e f g h , , & ( . . . ",
". . . , , , . . . . . . . i ^ , , & j . . . . . . , , , . . . . . . . . . , , , . . . . . . , , , . . . . . . . k l , , m . . . ",
". . . , , , . . . . . . . . . n , , o p . . . . . , , , . . . . . . . . . , , , . . . . . . , , , . . . . . . . . q , , r . . . ",
". . . , , , . . . . . . . . . s t , , q . . . . . , , , . . . . . . . . . , , , . . . . . . , , , . . . . . . . . u , , t . . . ",
". . . , , , . . . . . . . . . . v , , w . . . . . , , , . . . . . . . . . , , , . . . . . . , , , . . . . . . . . x , , y . . . ",
". . . , , , . . . . . . . . . . z , , : . . . . . , , , . . . . . . . . . , , , . . . . . . , , , . . . . . . . A B , , C . . . ",
". . . , , , . . . . . . . . . . D , , E . . . . . , , , . . . . . . . . . , , , . . . . . . , , , . . c F G H I J , , _ K . . . ",
". . . , , , . . . . . . . . . . L , , ~ . . . . . , , , . . . . . . . . . , , , . . . . . . , , , , , , , , , , , , 1 M . . . . ",
". . . , , , . . . . . . . . . . D , , E . . . . . , , , . . . . . . . . . , , , . . . . . . , , , , , , , , , , , * N . . . . . ",
". . . , , , . . . . . . . . . . O , , : . . . . . , , , P . . . . . . . P , , , . . . . . . , , , , , Q R [ S T U . . . . . . . ",
". . . , , , . . . . . . . . . . v , , w . . . . . $ , , V . . . . . . . W , , ! . . . . . . , , , . . . . . . . . . . . . . . . ",
". . . , , , . . . . . . . . . e t , , q . . . . . X , , Y . . . . . . . Z , , ` . . . . . . , , , . . . . . . . . . . . . . . . ",
". . . , , , . . . . . . . . . ' , , o p . . . . .  ., ,  .. . . . . . . .., , +.. . . . . . , , , . . . . . . . . . . . . . . . ",
". . . , , , . . . . . . . @.@ , , & j . . . . . . #., , 1 U . . . . . U 1 , , $.. . . . . . , , , . . . . . . . . . . . . . . . ",
". . . , , , 3 %.. &.f 2 m *., , , =.. . . . . . . 5 [ , , & -.;.p > >.*., , ,.. . . . . . . , , , . . . . . . . . . . . . . . . ",
". . . , , , , , , , , , , , , Q m 5 . . . . . . . . Y & , , , , , , , , , *.'.. . . . . . . , , , . . . . . . . . . . . . . . . ",
". . . , , , , , , , , , , 1 ).@.. . . . . . . . . . . j !., , , , , , , # ~.. . . . . . . . , , , . . . . . . . . . . . . . . . ",
". . . C n # {.].& !.^./ /.(.. . . . . . . . . . . . . . _.:.+.E ~ E +.:.b . . . . . . . . . , , , . . . . . . . . . . . . . . . ",
". . . . . . . . . . . . . . . . . . . . . . . . . . . . . . . . . . . . . . . . . . . . . . . . . . . . . . . . . . . . . . . . ",
". . . . . . . . . . . . . . . . . . . . . . . . . . . . . . . . . . . . . . . . . . . . . . . . . . . . . . . . . . . . . . . . ",
". . . . . . . . . . . . . . . . . . . . . . . . . . . . . . . . . . . . . . . . . . . . . . . . . . . . . . . . . . . . . . . . ",
". . . . . . . . . . . . . . . . . . . . . . . . . . . . . . . . . . . . . . . . . . . . . . . . . . . . . . . . . . . . . . . . ",
". . . . . . . . . . . . . . . . . . . . . . . . . . . . . . . . . . . . . . . . . . . . . . . . . . . . . . . . . . . . . . . . ",
". . . . . . . . . . . . . . . . . . . . . . . . . . . . . . . . . . . . . . . . . . . . . . . . . . . . . . . . . . . . . . . . ",
". . . . . . . . . . . . . . . . . . . . . . . . . . . . . . . . . . . . . . . . . . . . . . . . . . . . . . . . . . . . . . . . ",
". . . . . . . . . . . . . . . . . . . . . . . . . . . . . . . . . . . . . . . . . . . . . . . . . . . . . . . . . . . . . . . . ",
". . . . . . . . . . . . . . . . . . . . . . . . . . . . . . . . . . . . . . . . . . . . . . . . . . . . . . . . . . . . . . . . ",
". . . . . . . . . . . . . . . . . . . . . . . . . . . . . . . . . . . . . . . . . . . . . . . . . . . . . . . . . . . . . . . . ",
". . . . . . . . . . . . . . . . . . . . . . . . . . . . . . . . . . . . . . . . . . . . . . . . . . . . . . . . . . . . . . . . ",
". . . . . . . . . . . . . . . . . . . . . . . . . . . . . . . . . . . . . . . . . . . . . . . . . . . . . . . . . . . . . . . . ",
". . . . . . . . . . . . . . . . . . . . . . . . . . . . . . . . . . . . . . . . . . . . . . . . . . . . . . . . . . . . . . . . ",
". . . . . . . . . . . . . . . . . . . . . . . . . . . . . . . . . . . . . . . . . . . . . . . . . . . . . . . . . . . . . . . . ",
". . . . . . . . . . . . . . . . . . . . . . . . . . . . . . . . . . . . . . . . . . . . . . . . . . . . . . . . . . . . . . . . ",
". . . . . . . . . . . . . . . . . . . . . . . . . . . . . . . . . . . . . . . . . . . . . . . . . . . . . . . . . . . . . . . . ",
". . . . . . . . . . . . . . . . . . . . . . . . . . . . . . . . . . . . . . . . . . . . . . . . . . . . . . . . . . . . . . . . ",
". . . . . . . . . . . . . . . . . . . . . . . . . . . . . . . . . . . . . . . . . . . . . . . . . . . . . . . . . . . . . . . . ",
". . . . . . . . . . . . . . . . . . . . . . . . . . . . . . . . . . . . . . . . . . . . . . . . . . . . . . . . . . . . . . . . ",
". . . . . . . . . . . . . . . . . . . . . . . . . . . . . . . . . . . . . . . . . . . . . . . . . . . . . . . . . . . . . . . . ",
". . . . . . . . . . . . . . . . . . . . . . . . . . . . . . . . . . . . . . . . . . . . . . . . . . . . . . . . . . . . . . . . ",
". . . . . . . . . . . . . . . . . . . . . . . . . . . . . . . . . . . . . . . . . . . . . . . . . . . . . . . . . . . . . . . . ",
". . . . . . . . . . . . . . . . . . . . . . . . . . . . . . . . . . . . . . . . . . . . . . . . . . . . . . . . . . . . . . . . ",
". . . . . . . . . . . . . . . . . . . . . . . . . . . . . . . . . . . . . . . . . . . . . . . . . . . . . . . . . . . . . . . . ",
". . . . . . . . . . . . . . . . . . . . . . . . . . . . . . . . . . . . . . . . . . . . . . . . . . . . . . . . . . . . . . . . ",
". . . . . . . . . . . . . . . . . . . . . . . . . . . . . . . . . . . . . . . . . . . . . . . . . . . . . . . . . . . . . . . . ",
". . . . . . . . . . . . . . . . . . . . . . . . . . . . . . . . . . . . . . . . . . . . . . . . . . . . . . . . . . . . . . . . "};
