/* XPM */
static char * Icono64_xpm[] = {
"64 64 4 1",
" 	c #22B14C",
".	c #99D9EA",
"+	c #ED1C24",
"@	c #FFFFFF",
"    ............................................................",
"     ...........................................................",
"      ..........................................................",
"       .........................................................",
"        ........................................................",
"         .......................................................",
"          ......................................................",
"   +       .....................................................",
"   ++       ....................................................",
"   +++       ...................................................",
"   ++++       ..................................................",
"   +++++       .................................................",
"   ++++++       ................................................",
"   +++++++       ...............................................",
"   ++++++++       ..............................................",
"   +++++++++       .............................................",
"   ++++++++++       ............................................",
"   +++++++++++       ...........................................",
"   ++++++++++++       ..........................................",
"   +++++++++++++       .........................................",
"   ++++++++++++++       ........................................",
"   +++++++++++++++       .......................................",
"   ++++++++++++++++       ......................................",
"   +++++++++++++++++       .....................................",
"   ++++++++++++++++++       ....................................",
"   +++++++++++++++++++       ...................................",
"   ++++++++++++++++++++       ..................................",
"   +++++++++++++++++++++       .................................",
"   ++++++++++++++++++++++       ................................",
"   +++++++++++++++++++++++       ...............................",
"   ++++++++++++++++++++++++       ..............................",
"   +++++++++++++++++++++++++       .............................",
"   ++++++++++++++++++++++++++       ............................",
"   +++++++++++++++++++++++++++       ...........................",
"   ++++++++++++++++++++++++++++       ..........................",
"   +++++++++++++++++++++++++++++       .........................",
"   ++++++++++++++++++++++++++++++       ........................",
"                                         .......................",
"                                          ......................",
"                                           .....................",
"                                            ....................",
"                                             ...................",
"                                              ..................",
"                                               .................",
"                                                ................",
"                                                 ...............",
"   ++++++++++++++++++++++++++++++++++++++++       ..............",
"   +++++++++++++++++++++++++++++++++++++++++       .............",
"   ++++++++++++++++++++++++++++++++++++++++++       ............",
"   +++++++++++++++++++++++++++++++++++++++++++       ...........",
"   ++++++++++++++++++++++++++++++++++++++++++++       ..........",
"   +++++++++++++++++++++++++++++++++++++++++++++       .........",
"   ++++++++++++++++++++++++++++++++++++++++++++++       ........",
"   +++++++++++++++++++++++++++++++++++++++++++++++       .......",
"   ++++++++++++++++++++++++++++++++++++++++++++++++       ......",
"   +++++++++++++++++++++++++++++++++++++++++++++++++       .....",
"  +++++++++++++++++++++++++++++++++++++++++++++++++++       ....",
" +++++++++++++++++++++++++++++++++++++++++++++++++++++       ...",
" ++++++++++++++++++++++++++++++++++++++++++++++++++++++       ..",
" ++++++++++++++++++++++++++++++++++++++++++++++++++++          .",
"  ++++++++++++++++++++++++++++++++++++++++++++++++++            ",
"                                                                ",
"                                                                ",
"                                                               @"};
