/* XPM */
static char * Icono_xpm[] = {
"32 32 39 1",
" 	c None",
".	c #1AE200",
"+	c #1EFF00",
"@	c #021600",
"#	c #000000",
"$	c #031F00",
"%	c #1BEC00",
"&	c #1CEF00",
"*	c #052D00",
"=	c #1CF100",
"-	c #1DFA00",
";	c #1CF600",
">	c #042800",
",	c #1DFC00",
"'	c #053200",
")	c #1DFD00",
"!	c #222000",
"~	c #333000",
"{	c #B5AA00",
"]	c #FCEE00",
"^	c #FFF000",
"/	c #EAF100",
"(	c #53FB00",
"_	c #28FE00",
":	c #B6AB00",
"<	c #61FA00",
"[	c #1A1800",
"}	c #F5E700",
"|	c #99F600",
"1	c #23FE00",
"2	c #373400",
"3	c #B5F400",
"4	c #34FD00",
"5	c #F5E600",
"6	c #FBF000",
"7	c #83F800",
"8	c #FEF000",
"9	c #C8F300",
"0	c #4BFC00",
"                       .++++.@  ",
"                    ##$%++++%$  ",
"                 #####$&++++&*  ",
"                ######$=++++-   ",
"              ########$;+++++   ",
"            ##########>,+++++   ",
"          ############')+++++   ",
"         ############# ++++++   ",
"        ###########    ++++++   ",
"       ###########     ++++++   ",
"      ##########       +++++    ",
"    ##########         +++++    ",
"    #########          +++++    ",
"   ########           ++++++    ",
"  #######!            ++++++    ",
"  #####~{]^^^^^^^^^^^/(_++++    ",
"  #####:^^^^^^^^^^^^^^/<++++    ",
" #####[}^^^^^^^^^^^^^^^|1+++    ",
" #####2]^^^^^^^^^^^^^^^34+++    ",
" ######5^^^^^^^^^^^^^^67++++    ",
" ###### ^^^^^^^^^^^^^890++++    ",
" ######               ++++++    ",
" ######               ++++++    ",
" ######               ++++++    ",
" ######              +++++++    ",
" ######              ++++++     ",
" ######              ++++++     ",
" ######               ++++      ",
" ######                ++       ",
" ######                         ",
"  ####                          ",
"                                "};
